<svg width="311" height="200" viewBox="0 0 311 200" fill="none" xmlns="http://www.w3.org/2000/svg">
<rect width="311" height="200" rx="11" fill="#F6F7FC"/>
<path d="M124.792 95.324H125.902V104H124.912L120.256 97.16V104H119.146V95.324H120.208L124.792 102.068V95.324ZM130.349 104.12C129.777 104.12 129.277 103.998 128.849 103.754C128.421 103.506 128.089 103.144 127.853 102.668C127.617 102.192 127.499 101.61 127.499 100.922C127.499 100.274 127.609 99.706 127.829 99.218C128.049 98.73 128.371 98.352 128.795 98.084C129.223 97.812 129.741 97.676 130.349 97.676C130.921 97.676 131.417 97.802 131.837 98.054C132.261 98.302 132.589 98.668 132.821 99.152C133.053 99.636 133.169 100.226 133.169 100.922C133.169 101.554 133.061 102.11 132.845 102.59C132.633 103.07 132.317 103.446 131.897 103.718C131.481 103.986 130.965 104.12 130.349 104.12ZM130.349 103.244C130.721 103.244 131.035 103.15 131.291 102.962C131.547 102.774 131.741 102.504 131.873 102.152C132.005 101.8 132.071 101.382 132.071 100.898C132.071 100.454 132.013 100.056 131.897 99.704C131.781 99.348 131.595 99.066 131.339 98.858C131.087 98.65 130.757 98.546 130.349 98.546C129.973 98.546 129.655 98.64 129.395 98.828C129.135 99.012 128.937 99.28 128.801 99.632C128.669 99.984 128.603 100.406 128.603 100.898C128.603 101.334 128.663 101.73 128.783 102.086C128.903 102.442 129.091 102.724 129.347 102.932C129.603 103.14 129.937 103.244 130.349 103.244ZM140.48 98.606H139.082V102.464C139.082 102.684 139.104 102.846 139.148 102.95C139.196 103.05 139.274 103.114 139.382 103.142C139.494 103.17 139.646 103.184 139.838 103.184H140.516V103.928C140.44 103.956 140.324 103.98 140.168 104C140.016 104.02 139.826 104.03 139.598 104.03C139.17 104.03 138.838 103.972 138.602 103.856C138.366 103.74 138.2 103.568 138.104 103.34C138.012 103.112 137.966 102.832 137.966 102.5V98.606H136.958V97.796H137.996L138.266 95.99H139.082V97.79H140.48V98.606ZM142.074 104V95.084H143.154V98.708C143.258 98.536 143.398 98.376 143.574 98.228C143.75 98.076 143.964 97.954 144.216 97.862C144.468 97.766 144.76 97.718 145.092 97.718C145.496 97.718 145.862 97.794 146.19 97.946C146.518 98.094 146.778 98.306 146.97 98.582C147.162 98.858 147.258 99.186 147.258 99.566V104H146.148V99.788C146.148 99.416 146.02 99.13 145.764 98.93C145.512 98.726 145.182 98.624 144.774 98.624C144.498 98.624 144.238 98.67 143.994 98.762C143.75 98.85 143.552 98.986 143.4 99.17C143.252 99.35 143.178 99.58 143.178 99.86V104H142.074ZM151.175 104.12C150.851 104.116 150.545 104.07 150.257 103.982C149.973 103.89 149.721 103.756 149.501 103.58C149.281 103.404 149.107 103.186 148.979 102.926C148.855 102.662 148.793 102.356 148.793 102.008V97.796H149.903V101.894C149.903 102.298 150.027 102.626 150.275 102.878C150.527 103.13 150.905 103.256 151.409 103.256C151.865 103.256 152.231 103.138 152.507 102.902C152.787 102.662 152.927 102.306 152.927 101.834V97.796H154.031V104H153.149L153.035 102.812C152.959 103.124 152.829 103.376 152.645 103.568C152.465 103.76 152.247 103.902 151.991 103.994C151.739 104.082 151.467 104.124 151.175 104.12ZM155.832 104V97.796H156.9V98.696C157.072 98.424 157.308 98.186 157.608 97.982C157.908 97.778 158.298 97.676 158.778 97.676C159.002 97.676 159.23 97.714 159.462 97.79C159.698 97.866 159.914 97.98 160.11 98.132C160.306 98.284 160.458 98.47 160.566 98.69C160.758 98.386 161.018 98.142 161.346 97.958C161.674 97.77 162.044 97.676 162.456 97.676C162.672 97.676 162.898 97.71 163.134 97.778C163.37 97.842 163.588 97.958 163.788 98.126C163.992 98.29 164.158 98.52 164.286 98.816C164.414 99.108 164.478 99.484 164.478 99.944V104H163.362V100.052C163.362 99.676 163.302 99.386 163.182 99.182C163.062 98.974 162.904 98.828 162.708 98.744C162.516 98.66 162.31 98.618 162.09 98.618C161.898 98.618 161.694 98.656 161.478 98.732C161.262 98.808 161.078 98.936 160.926 99.116C160.774 99.296 160.698 99.542 160.698 99.854V104H159.594V99.728C159.594 99.484 159.528 99.28 159.396 99.116C159.268 98.952 159.106 98.828 158.91 98.744C158.718 98.66 158.526 98.618 158.334 98.618C158.122 98.618 157.908 98.66 157.692 98.744C157.48 98.828 157.3 98.962 157.152 99.146C157.008 99.326 156.936 99.562 156.936 99.854V104H155.832ZM169.281 104.12C168.917 104.12 168.609 104.072 168.357 103.976C168.109 103.88 167.905 103.758 167.745 103.61C167.585 103.458 167.461 103.304 167.373 103.148C167.285 102.988 167.221 102.848 167.181 102.728L167.061 104H166.215V95.084H167.331V98.78C167.383 98.676 167.461 98.562 167.565 98.438C167.673 98.314 167.811 98.194 167.979 98.078C168.147 97.962 168.345 97.866 168.573 97.79C168.805 97.714 169.069 97.676 169.365 97.676C170.141 97.676 170.757 97.946 171.213 98.486C171.673 99.026 171.903 99.822 171.903 100.874C171.903 101.526 171.805 102.096 171.609 102.584C171.413 103.068 171.121 103.446 170.733 103.718C170.345 103.986 169.861 104.12 169.281 104.12ZM169.083 103.268C169.587 103.268 169.997 103.074 170.313 102.686C170.629 102.294 170.787 101.672 170.787 100.82C170.787 100.096 170.639 99.536 170.343 99.14C170.051 98.74 169.623 98.54 169.059 98.54C168.647 98.54 168.315 98.63 168.063 98.81C167.815 98.986 167.631 99.244 167.511 99.584C167.395 99.924 167.335 100.336 167.331 100.82C167.331 101.688 167.465 102.314 167.733 102.698C168.005 103.078 168.455 103.268 169.083 103.268ZM173.352 104V97.796H174.426V98.696C174.526 98.524 174.664 98.362 174.84 98.21C175.02 98.058 175.236 97.936 175.488 97.844C175.744 97.752 176.038 97.706 176.37 97.706C176.762 97.706 177.122 97.784 177.45 97.94C177.782 98.096 178.046 98.34 178.242 98.672C178.442 99 178.542 99.424 178.542 99.944V104H177.432V100.052C177.432 99.568 177.304 99.21 177.048 98.978C176.796 98.742 176.468 98.624 176.064 98.624C175.784 98.624 175.522 98.67 175.278 98.762C175.034 98.85 174.836 98.986 174.684 99.17C174.532 99.35 174.456 99.578 174.456 99.854V104H173.352ZM181.97 104.12C181.57 104.12 181.216 104.05 180.908 103.91C180.6 103.766 180.358 103.56 180.182 103.292C180.01 103.024 179.924 102.7 179.924 102.32C179.924 101.632 180.164 101.12 180.644 100.784C181.124 100.448 181.894 100.268 182.954 100.244L184.064 100.214V99.728C184.064 99.348 183.95 99.048 183.722 98.828C183.494 98.604 183.14 98.492 182.66 98.492C182.304 98.496 181.99 98.58 181.718 98.744C181.45 98.908 181.276 99.176 181.196 99.548H180.218C180.242 99.144 180.356 98.804 180.56 98.528C180.764 98.248 181.048 98.036 181.412 97.892C181.78 97.748 182.214 97.676 182.714 97.676C183.254 97.676 183.702 97.752 184.058 97.904C184.418 98.056 184.686 98.28 184.862 98.576C185.042 98.872 185.132 99.236 185.132 99.668V104H184.184L184.106 102.836C183.866 103.32 183.56 103.656 183.188 103.844C182.82 104.028 182.414 104.12 181.97 104.12ZM182.306 103.322C182.514 103.322 182.72 103.284 182.924 103.208C183.132 103.132 183.322 103.03 183.494 102.902C183.666 102.77 183.802 102.624 183.902 102.464C184.006 102.3 184.06 102.132 184.064 101.96V100.898L183.14 100.916C182.668 100.924 182.272 100.972 181.952 101.06C181.636 101.148 181.398 101.286 181.238 101.474C181.082 101.662 181.004 101.908 181.004 102.212C181.004 102.56 181.124 102.832 181.364 103.028C181.608 103.224 181.922 103.322 182.306 103.322ZM188.227 97.796V104H187.153V97.796H188.227ZM188.251 95.33V96.482H187.117V95.33H188.251ZM191.816 104.078C191.48 104.078 191.208 104.032 191 103.94C190.796 103.848 190.638 103.724 190.526 103.568C190.418 103.412 190.344 103.234 190.304 103.034C190.268 102.83 190.25 102.62 190.25 102.404V95.084H191.342V102.296C191.342 102.608 191.402 102.842 191.522 102.998C191.646 103.154 191.818 103.24 192.038 103.256L192.374 103.262V103.982C192.282 104.01 192.186 104.032 192.086 104.048C191.986 104.068 191.896 104.078 191.816 104.078Z" fill="#B5BBC8"/>
</svg>
