<svg width="163" height="51" viewBox="0 0 163 51" fill="none" xmlns="http://www.w3.org/2000/svg">
<g clip-path="url(#clip0_985_17368)">
<path d="M24.4485 26.783H16.1927L11.0312 40.4002H20.1858H24.4485V26.783Z" fill="#6172F3"/>
<path d="M29.557 10.1217H22.4824L17.3337 23.7514H27.554V40.4002H31.7653H33.2034H40.9584L29.557 10.1217Z" fill="#6172F3"/>
</g>
<path d="M63.304 30.4636H56.632L55.528 33.6556H52L58.024 16.8796H61.936L67.96 33.6556H64.408L63.304 30.4636ZM62.392 27.7756L59.968 20.7676L57.544 27.7756H62.392Z" fill="#101828"/>
<path d="M73.5717 30.9916H79.0917V33.6556H70.2117V16.9036H73.5717V30.9916Z" fill="#101828"/>
<path d="M84.5873 30.9916H90.1073V33.6556H81.2273V16.9036H84.5873V30.9916Z" fill="#101828"/>
<path d="M105.563 16.9036L99.8989 27.8236V33.6556H96.5389V27.8236L90.8509 16.9036H94.6429L98.2429 24.5596L101.819 16.9036H105.563Z" fill="#101828"/>
<path d="M121.829 33.6556H118.469L110.861 22.1596V33.6556H107.501V16.8796H110.861L118.469 28.3996V16.8796H121.829V33.6556Z" fill="#101828"/>
<path d="M128.509 19.6156V23.8156H134.149V26.4796H128.509V30.9196H134.869V33.6556H125.149V16.8796H134.869V19.6156H128.509Z" fill="#101828"/>
<path d="M146.563 33.6556L142.867 27.1276H141.283V33.6556H137.923V16.9036H144.211C145.507 16.9036 146.611 17.1356 147.523 17.5996C148.435 18.0476 149.115 18.6636 149.563 19.4476C150.027 20.2156 150.259 21.0796 150.259 22.0396C150.259 23.1436 149.939 24.1436 149.299 25.0396C148.659 25.9196 147.707 26.5276 146.443 26.8636L150.451 33.6556H146.563ZM141.283 24.6076H144.091C145.003 24.6076 145.683 24.3916 146.131 23.9596C146.579 23.5116 146.803 22.8956 146.803 22.1116C146.803 21.3436 146.579 20.7516 146.131 20.3356C145.683 19.9036 145.003 19.6876 144.091 19.6876H141.283V24.6076Z" fill="#101828"/>
<defs>
<clipPath id="clip0_985_17368">
<rect width="52" height="50.5352" fill="white"/>
</clipPath>
</defs>
</svg>
