<svg width="339" height="315" viewBox="0 0 339 315" fill="none" xmlns="http://www.w3.org/2000/svg">
<path fill-rule="evenodd" clip-rule="evenodd" d="M337.437 306.594C335.332 309.692 330.518 308.056 326.981 309.275C322.879 310.69 319.507 315.709 315.455 314.173C311.368 312.624 310.898 307.089 309.943 302.818C309.042 298.788 308.246 294.513 310.253 290.899C312.285 287.239 316.266 285.324 320.289 284.183C324.379 283.023 329.111 282.077 332.542 284.578C335.829 286.975 335.279 291.782 336.163 295.758C336.984 299.448 339.563 303.464 337.437 306.594Z" fill="#F7F9FF"/>
<path fill-rule="evenodd" clip-rule="evenodd" d="M150.149 0.115945C183.809 2.58094 192.736 47.529 218.191 69.6374C247.711 95.2762 302.077 98.9749 308.348 137.516C314.674 176.395 273.593 205.007 244.562 231.702C217.171 256.889 187.395 282.363 150.149 282.987C112.424 283.619 79.5413 261.178 52.5093 234.92C25.0305 208.229 -3.67891 175.562 0.386791 137.516C4.28219 101.065 44.2746 83.6947 71.322 58.8798C96.4209 35.8525 116.141 -2.37505 150.149 0.115945Z" fill="#F7F9FF"/>
</svg>
