<svg width="332" height="242" viewBox="0 0 332 242" fill="none" xmlns="http://www.w3.org/2000/svg">
<path fill-rule="evenodd" clip-rule="evenodd" d="M319.525 61.4511C316.088 60.6581 312.132 58.8751 309.349 61.0181C306.499 63.2141 307.037 67.4941 307.046 71.0631C307.056 74.6181 306.559 78.8741 309.402 81.0551C312.174 83.1821 316.049 81.1211 319.525 80.6371C322.234 80.2591 324.983 80.2411 327.141 78.5821C329.608 76.6851 332.268 74.1361 331.978 71.0631C331.695 68.0641 328.247 66.6821 325.843 64.8271C323.881 63.3131 321.949 62.0111 319.525 61.4511Z" fill="#F7F9FF"/>
<path fill-rule="evenodd" clip-rule="evenodd" d="M135.73 15.962C173.12 7.23396 216.167 -12.373 246.44 11.203C277.45 35.353 271.6 82.438 271.497 121.694C271.395 160.8 276.803 207.612 245.865 231.61C215.705 255.004 173.552 232.335 135.73 227.002C106.255 222.846 76.3503 222.651 52.8637 204.397C26.0255 183.537 -2.91957 155.497 0.237029 121.694C3.31833 88.699 40.8365 73.504 66.9933 53.093C88.3295 36.443 109.358 22.119 135.73 15.962Z" fill="#F7F9FF"/>
</svg>
