<svg width="361" height="252" viewBox="0 0 361 252" fill="none" xmlns="http://www.w3.org/2000/svg">
<path fill-rule="evenodd" clip-rule="evenodd" d="M31.5203 139.854C38.3203 139.863 46.2202 143.202 51.0902 138.438C55.9802 133.662 53.2703 125.618 53.1003 118.767C52.9403 112.193 53.7203 105.547 50.1703 100.021C45.7003 93.0492 39.7203 86.0541 31.5203 85.1312C22.7503 84.1452 14.1953 88.8307 8.16026 95.295C2.30426 101.569 -0.643736 110.199 0.118265 118.767C0.823264 126.693 5.40926 133.966 11.9933 138.388C17.6303 142.176 24.7303 139.845 31.5203 139.854Z" fill="#F7F9FF"/>
<path fill-rule="evenodd" clip-rule="evenodd" d="M258.414 5.1559C289.144 5.1163 324.823 -9.9104 346.863 11.5266C368.953 33.0207 356.683 69.221 355.943 100.048C355.233 129.63 358.723 159.538 342.703 184.406C322.483 215.779 295.484 247.256 258.414 251.409C218.804 255.846 180.143 234.762 152.873 205.673C126.413 177.441 113.094 138.604 116.534 100.048C119.724 64.38 140.443 31.6513 170.193 11.7541C195.683 -5.2932 227.754 5.1954 258.414 5.1559Z" fill="#F7F9FF"/>
</svg>
