<svg width="367" height="265" viewBox="0 0 367 265" fill="none" xmlns="http://www.w3.org/2000/svg">
<path fill-rule="evenodd" clip-rule="evenodd" d="M9.39059 61.0434C6.38059 60.6994 3.3406 62.4703 1.5306 64.9553C-0.0993991 67.2003 0.820552 70.1843 0.730552 72.9763C0.630552 75.9583 -0.999467 79.3703 0.960533 81.5823C2.94053 83.8133 6.44059 82.7184 9.39059 82.7494C12.3806 82.7804 15.6806 83.7183 17.9806 81.7593C20.4006 79.7043 21.3606 76.1493 20.8806 72.9763C20.4406 70.1223 17.6406 68.6293 15.6606 66.5703C13.6406 64.4803 12.2406 61.3694 9.39059 61.0434Z" fill="#F7F9FF"/>
<path fill-rule="evenodd" clip-rule="evenodd" d="M108.681 32.3253C112.711 32.3303 117.391 34.2983 120.281 31.4913C123.171 28.6763 121.561 23.9353 121.471 19.8983C121.371 16.0253 121.831 12.1083 119.731 8.8523C117.081 4.7433 113.541 0.621332 108.681 0.0773322C103.481 -0.503668 98.4106 2.25732 94.8406 6.06732C91.3706 9.76432 89.6205 14.8493 90.0705 19.8983C90.4905 24.5693 93.2106 28.8553 97.1106 31.4613C100.451 33.6933 104.661 32.3203 108.681 32.3253Z" fill="#F7F9FF"/>
<path fill-rule="evenodd" clip-rule="evenodd" d="M251.689 0.514926C288.649 -3.62907 326.009 17.7079 348.159 47.6369C368.169 74.6779 356.869 110.624 358.049 144.261C359.309 180.172 379.249 221.276 355.179 247.917C330.889 274.792 287.879 261.602 251.689 261.971C214.859 262.345 174.379 273.645 146.069 250.046C116.389 225.3 104.529 182.477 110.499 144.261C115.869 109.884 150.279 91.8939 174.639 67.0889C199.369 41.9129 216.649 4.44293 251.689 0.514926Z" fill="#F7F9FF"/>
</svg>
